<svg width="680" height="440" viewBox="0 0 680 440" xmlns="http://www.w3.org/2000/svg">
<style>
@import url('https://fonts.googleapis.com/css2?family=Space+Grotesk:wght@400;600;700&amp;display=swap');
.lm { font-family: 'Space Grotesk', sans-serif; font-size: 38px; font-weight: 700; fill: #0f1117; }
.ls { font-family: 'Space Grotesk', sans-serif; font-size: 13px; font-weight: 400; letter-spacing: 4px; fill: #667; }
.li { font-family: 'Space Grotesk', sans-serif; font-size: 11px; font-weight: 600; letter-spacing: 2px; fill: #00c896; }
</style>

<rect x="210" y="30" width="260" height="260" rx="48" fill="#0d1220"/>

<g opacity="0.18">
  <line x1="230" y1="50" x2="230" y2="270" stroke="#4da6ff" stroke-width="0.5"/>
  <line x1="250" y1="50" x2="250" y2="270" stroke="#4da6ff" stroke-width="0.5"/>
  <line x1="270" y1="50" x2="270" y2="270" stroke="#4da6ff" stroke-width="0.5"/>
  <line x1="290" y1="50" x2="290" y2="270" stroke="#4da6ff" stroke-width="0.5"/>
  <line x1="310" y1="50" x2="310" y2="270" stroke="#4da6ff" stroke-width="0.5"/>
  <line x1="330" y1="50" x2="330" y2="270" stroke="#4da6ff" stroke-width="0.5"/>
  <line x1="350" y1="50" x2="350" y2="270" stroke="#4da6ff" stroke-width="0.5"/>
  <line x1="370" y1="50" x2="370" y2="270" stroke="#4da6ff" stroke-width="0.5"/>
  <line x1="390" y1="50" x2="390" y2="270" stroke="#4da6ff" stroke-width="0.5"/>
  <line x1="410" y1="50" x2="410" y2="270" stroke="#4da6ff" stroke-width="0.5"/>
  <line x1="430" y1="50" x2="430" y2="270" stroke="#4da6ff" stroke-width="0.5"/>
  <line x1="450" y1="50" x2="450" y2="270" stroke="#4da6ff" stroke-width="0.5"/>
  <line x1="215" y1="70"  x2="455" y2="70"  stroke="#4da6ff" stroke-width="0.5"/>
  <line x1="215" y1="90"  x2="455" y2="90"  stroke="#4da6ff" stroke-width="0.5"/>
  <line x1="215" y1="110" x2="455" y2="110" stroke="#4da6ff" stroke-width="0.5"/>
  <line x1="215" y1="130" x2="455" y2="130" stroke="#4da6ff" stroke-width="0.5"/>
  <line x1="215" y1="150" x2="455" y2="150" stroke="#4da6ff" stroke-width="0.5"/>
  <line x1="215" y1="170" x2="455" y2="170" stroke="#4da6ff" stroke-width="0.5"/>
  <line x1="215" y1="190" x2="455" y2="190" stroke="#4da6ff" stroke-width="0.5"/>
  <line x1="215" y1="210" x2="455" y2="210" stroke="#4da6ff" stroke-width="0.5"/>
  <line x1="215" y1="230" x2="455" y2="230" stroke="#4da6ff" stroke-width="0.5"/>
  <line x1="215" y1="250" x2="455" y2="250" stroke="#4da6ff" stroke-width="0.5"/>
</g>

<rect x="240" y="65" width="200" height="185" rx="2" fill="none" stroke="#4da6ff" stroke-width="2" opacity="0.5"/>
<line x1="320" y1="65"  x2="320" y2="175" stroke="#4da6ff" stroke-width="1.5" opacity="0.5"/>
<line x1="240" y1="155" x2="370" y2="155" stroke="#4da6ff" stroke-width="1.5" opacity="0.5"/>
<line x1="370" y1="155" x2="370" y2="250" stroke="#4da6ff" stroke-width="1.5" opacity="0.5"/>
<line x1="240" y1="175" x2="240" y2="195" stroke="#0d1220" stroke-width="3"/>
<path d="M240,175 Q255,175 255,190" fill="none" stroke="#4da6ff" stroke-width="1" opacity="0.6"/>

<rect x="258" y="185" width="18" height="40" rx="3" fill="#1a2540"/>
<rect x="258" y="183" width="18" height="5" rx="2" fill="#f0b429"/>
<rect x="282" y="165" width="18" height="60" rx="3" fill="#1a2540"/>
<rect x="282" y="163" width="18" height="5" rx="2" fill="#00c896"/>
<rect x="306" y="140" width="18" height="85" rx="3" fill="#1a2540"/>
<rect x="306" y="138" width="18" height="5" rx="2" fill="#00c896"/>
<rect x="386" y="120" width="18" height="95" rx="3" fill="#1a2540"/>
<rect x="386" y="118" width="18" height="5" rx="2" fill="#f0b429"/>
<rect x="410" y="100" width="18" height="115" rx="3" fill="#1a2540"/>
<rect x="410" y="98"  width="18" height="5" rx="2" fill="#00c896"/>

<polyline points="267,218 291,195 315,165 395,148 419,128"
  fill="none" stroke="#00c896" stroke-width="2" stroke-linecap="round" stroke-linejoin="round"/>
<circle cx="267" cy="218" r="4" fill="#00c896"/>
<circle cx="291" cy="195" r="4" fill="#00c896"/>
<circle cx="315" cy="165" r="4" fill="#00c896"/>
<circle cx="395" cy="148" r="4" fill="#f0b429"/>
<circle cx="419" cy="128" r="4.5" fill="#f0b429"/>
<polygon points="419,108 426,124 419,120 412,124" fill="#f0b429"/>

<line x1="240" y1="258" x2="440" y2="258" stroke="#4da6ff" stroke-width="1.5" opacity="0.7"/>
<line x1="240" y1="254" x2="240" y2="262" stroke="#4da6ff" stroke-width="1.5" opacity="0.7"/>
<line x1="290" y1="255" x2="290" y2="261" stroke="#4da6ff" stroke-width="1"   opacity="0.5"/>
<line x1="340" y1="255" x2="340" y2="261" stroke="#4da6ff" stroke-width="1"   opacity="0.5"/>
<line x1="390" y1="255" x2="390" y2="261" stroke="#4da6ff" stroke-width="1"   opacity="0.5"/>
<line x1="440" y1="254" x2="440" y2="262" stroke="#4da6ff" stroke-width="1.5" opacity="0.7"/>

<text x="340" y="142" text-anchor="middle"
  font-family="'Space Grotesk', sans-serif" font-size="22" font-weight="700"
  fill="#00c896" opacity="0.25">R$</text>
<text x="282" y="275" text-anchor="middle" class="li">BLUEPRINT</text>

<text x="340" y="330" text-anchor="middle" class="lm">Arquiteto de Valor</text>
<text x="340" y="358" text-anchor="middle" class="ls">CONTROLE FINANCEIRO PESSOAL</text>

<line x1="270" y1="368" x2="306" y2="368" stroke="#f0b429" stroke-width="2"/>
<line x1="310" y1="368" x2="370" y2="368" stroke="#00c896" stroke-width="2"/>
<line x1="374" y1="368" x2="410" y2="368" stroke="#f0b429" stroke-width="2"/>
</svg>
